# xmcd
#
# Track frame offsets:
#	150
#	23280
#	52485
#	73115
#	104965
#	113708
#	140544
#	162096
#	188466
#
# Disc length: 2988 seconds
#
# Revision: 1
# Processed by: cddbd v1.5.2PL0 Copyright (c) Steve Scherf et al.
# Submitted via: audiograbber 1.83.01
#
DISCID=7c0baa09
DTITLE=Grateful Dead - 71-12-02 Boston Music Hall, Boston MA
DYEAR=1900
DGENRE=
TTITLE0=Big Railroad Blues
TTITLE1=Casey Jones
TTITLE2=One More Saturday Night
TTITLE3=Sugar Magnolia
TTITLE4=Tuning
TTITLE5=Deal
TTITLE6=El Paso
TTITLE7=Brokedown Palace
TTITLE8=Uncle John's Band
EXTD=
EXTT0=
EXTT1=
EXTT2=
EXTT3=
EXTT4=
EXTT5=
EXTT6=
EXTT7=
EXTT8=
PLAYORDER=
